<?xml version="1.0" ?><!DOCTYPE svg  PUBLIC '-//W3C//DTD SVG 1.1//EN'  'http://www.w3.org/Graphics/SVG/1.1/DTD/svg11.dtd'><svg enable-background="new 0 0 1024 1024" height="1024px" id="Layer_1" version="1.1" viewBox="0 0 1024 1024" width="1024px" xml:space="preserve" xmlns="http://www.w3.org/2000/svg" xmlns:xlink="http://www.w3.org/1999/xlink"><g><path clip-rule="evenodd" d="M564.193,0c21.689,3.324,43.755,5.085,65.006,10.226    c133.53,32.296,226.597,109.821,267.968,243.545c14.147,45.728,13.465,92.816,8.947,139.857    c-6.208,64.651-22.28,126.609-53.937,183.757c-42.344,76.434-102.524,131.709-188.833,154.084    c-47.3,12.262-94.808,14.451-141.43-4.304c-29.997-12.067-55.742-29.616-74.666-59.096c-6.717,26.438-12.5,51.161-19.316,75.597    c-11.887,42.613-21.886,85.989-37.292,127.326c-20.255,54.349-53.197,102.072-88.83,147.665c-2.269,2.903-7.585,6.027-10.35,5.21    c-2.818-0.835-5.524-6.219-6.074-9.935c-12.394-83.863-12.324-167.003,8.863-250.03c23.874-93.56,44.938-187.838,66.88-281.884    c1.182-5.065,0.257-11.247-1.498-16.276c-19.744-56.564-22.685-113.033,2.932-168.432c16.103-34.827,41.254-60.589,81.094-67.51    c48.585-8.44,87.249,21.332,92.621,70.477c3.605,32.986-4.504,64.258-13.275,95.398c-12.183,43.257-26.158,86.045-37.103,129.604    c-14.893,59.271,26.752,111.89,88.008,113.379c52.555,1.278,90.633-25.034,120.975-64.849    c33.917-44.504,51.226-96.102,61.23-150.387c7.823-42.448,12.075-85.385,6.648-128.39    c-12.331-97.725-70.168-163.475-165.918-185.507c-90.472-20.819-176.801-9.505-253.499,45.96    c-67.267,48.646-102.801,116.402-111.656,198.558c-2.774,25.73-1.963,51.229,3.826,76.538    c5.76,25.185,16.705,47.823,33.725,67.184c9.557,10.869,12.119,21.993,7.605,35.877c-4.516,13.905-7.189,28.398-10.975,42.552    c-4.556,17.034-15.672,22.543-31.902,15.483c-52.826-22.973-85.12-64.521-101.973-117.966    C98.295,366.831,115.334,266.55,177.57,174.455C238.981,83.58,326.694,31.721,433.091,10.163    c20.507-4.153,41.549-5.664,62.337-8.455c2.93-0.393,5.814-1.13,8.721-1.708C524.163,0,544.178,0,564.193,0z" fill-rule="evenodd"/></g></svg>